<?xml version="1.0" standalone="no"?>
<!DOCTYPE svg PUBLIC "-//W3C//DTD SVG 20010904//EN"
 "http://www.w3.org/TR/2001/REC-SVG-20010904/DTD/svg10.dtd">
<svg version="1.0" xmlns="http://www.w3.org/2000/svg"
 width="700.000000pt" height="700.000000pt" viewBox="0 0 700.000000 700.000000"
 preserveAspectRatio="xMidYMid meet">
<metadata>
Created by potrace 1.11, written by Peter Selinger 2001-2013
</metadata>
<g transform="translate(0.000000,700.000000) scale(0.100000,-0.100000)"
fill="#000000" stroke="none">
<path d="M3454 6793 c-23 -32 -106 -143 -186 -248 -79 -104 -227 -300 -328
-435 -102 -135 -187 -247 -190 -250 -3 -3 -23 -30 -45 -60 -22 -30 -42 -57
-45 -60 -3 -3 -59 -77 -125 -165 -66 -88 -122 -162 -125 -165 -3 -3 -22 -28
-43 -56 -52 -72 -57 -75 -92 -59 -17 8 -59 26 -95 40 -71 29 -86 35 -205 90
-44 20 -116 53 -160 73 -90 41 -853 424 -936 469 -30 17 -103 56 -164 88 -60
32 -152 80 -203 107 -51 27 -120 64 -155 82 -149 79 -246 130 -293 157 -28 16
-54 29 -57 29 -5 0 41 -180 118 -455 26 -93 51 -183 55 -200 20 -79 140 -486
205 -700 130 -422 190 -585 353 -960 122 -280 150 -344 162 -370 5 -11 72
-159 149 -330 76 -170 152 -339 169 -375 20 -44 27 -70 21 -80 -5 -8 -35 -54
-67 -102 -31 -49 -94 -145 -140 -215 -46 -71 -119 -182 -162 -248 -156 -238
-245 -376 -255 -394 -6 -10 -17 -27 -25 -36 -13 -16 -7 -24 61 -89 176 -167
383 -348 509 -445 274 -212 494 -365 726 -503 142 -85 220 -130 414 -236 64
-35 618 -312 624 -312 2 0 97 -43 212 -96 115 -53 244 -111 286 -129 l78 -33
77 33 c43 18 110 47 148 65 39 18 149 68 245 112 541 248 1085 543 1430 777
158 107 505 365 540 401 3 3 34 30 70 60 36 30 70 60 76 65 6 6 48 44 94 85
46 41 119 109 163 151 l80 75 -218 335 c-120 184 -261 399 -313 479 -52 80
-105 161 -117 181 l-23 35 25 55 c14 30 58 126 98 214 64 142 87 192 140 310
7 17 52 118 100 225 47 107 92 209 100 225 52 115 175 411 215 515 50 131 159
458 166 499 3 14 7 28 10 33 11 17 127 414 235 803 156 558 160 575 152 575
-3 0 -29 -13 -57 -29 -63 -35 -149 -81 -291 -156 -60 -32 -141 -74 -180 -95
-38 -21 -113 -60 -165 -87 -52 -28 -135 -72 -185 -98 -138 -74 -863 -438 -920
-462 -27 -12 -99 -45 -160 -73 -60 -29 -163 -74 -227 -101 l-118 -48 -33 42
c-19 23 -54 69 -78 102 -24 33 -46 62 -50 65 -3 3 -73 95 -156 205 -404 537
-816 1082 -845 1116 l-33 39 -41 -57z m70 -770 c24 -31 224 -296 456 -603 85
-113 157 -207 160 -210 3 -3 21 -26 40 -53 19 -26 69 -92 110 -146 41 -54 109
-143 150 -198 68 -90 77 -99 100 -92 54 15 321 112 428 155 212 85 727 331
1146 548 60 31 111 54 114 51 3 -3 -6 -42 -20 -87 -14 -46 -49 -159 -77 -253
-97 -316 -138 -430 -271 -741 -56 -131 -115 -266 -130 -299 -15 -33 -42 -94
-60 -135 -18 -41 -44 -100 -57 -130 -14 -30 -42 -93 -63 -140 -21 -47 -56
-124 -79 -173 -22 -48 -41 -89 -41 -91 0 -3 -16 -40 -36 -83 -152 -327 -185
-405 -181 -417 4 -10 106 -167 455 -701 47 -71 95 -147 108 -167 l24 -37 -133
-110 c-360 -300 -718 -540 -1162 -778 -260 -139 -975 -483 -1005 -483 -6 0
-59 22 -118 49 -59 27 -129 59 -157 71 -91 41 -668 328 -755 375 -335 183
-610 359 -883 564 -203 152 -388 311 -380 324 4 7 62 95 128 197 67 102 159
244 206 315 46 72 87 132 91 133 5 2 8 7 8 11 0 5 26 48 58 97 105 160 100
143 68 211 -16 32 -82 177 -148 323 -66 146 -130 288 -143 315 -41 87 -259
582 -350 795 -123 288 -152 369 -280 788 -41 134 -77 247 -80 252 -4 6 -4 10
-1 10 3 0 162 -78 353 -174 663 -331 863 -420 1268 -559 l99 -34 62 81 c87
115 672 889 823 1089 69 92 128 167 130 167 2 0 13 -12 25 -27z"/>
<path d="M3455 4719 c-21 -27 -46 -60 -56 -72 -10 -12 -69 -88 -131 -168 -62
-81 -169 -219 -237 -308 -68 -89 -129 -161 -134 -161 -16 0 -459 217 -649 318
-40 22 -134 71 -208 110 -74 39 -198 105 -275 146 -77 41 -141 73 -143 71 -2
-2 2 -23 8 -46 7 -24 13 -51 15 -60 2 -9 12 -47 23 -85 12 -38 35 -123 53
-189 17 -66 40 -149 50 -185 10 -36 31 -112 47 -170 43 -154 118 -397 157
-505 39 -109 81 -206 191 -442 19 -40 34 -75 34 -78 0 -3 13 -33 29 -67 17
-34 27 -67 23 -72 -3 -6 -75 -114 -159 -240 -84 -127 -153 -235 -153 -241 0
-18 206 -215 329 -314 164 -133 318 -238 481 -328 164 -91 650 -320 736 -347
12 -4 41 2 70 15 247 108 322 143 474 219 237 119 470 256 568 335 10 7 64 51
122 97 57 46 159 136 227 201 l122 118 -166 249 c-119 180 -163 253 -156 262
5 7 19 36 31 63 11 28 38 86 58 130 21 44 39 82 39 85 3 10 24 57 59 133 67
146 97 228 180 497 67 220 266 939 266 963 0 6 -199 -94 -225 -113 -5 -4 -82
-44 -170 -90 -88 -45 -203 -105 -255 -133 -131 -69 -491 -248 -568 -282 -54
-24 -65 -26 -76 -14 -11 12 -332 427 -519 672 -33 42 -63 77 -67 77 -5 0 -25
-23 -45 -51z m141 -737 c49 -64 150 -195 224 -289 73 -95 137 -173 142 -173
10 0 137 45 223 79 53 20 246 111 428 201 59 29 109 51 112 48 3 -3 -21 -86
-53 -184 -50 -153 -163 -423 -298 -711 -19 -40 -50 -107 -69 -148 l-35 -75
130 -195 c71 -107 130 -198 130 -202 0 -12 -152 -132 -260 -205 -176 -120
-370 -225 -658 -355 l-113 -52 -67 31 c-163 74 -403 193 -477 235 -44 26 -90
52 -102 58 -72 38 -373 263 -381 285 -2 4 56 96 127 204 l131 195 -71 153
c-182 394 -275 613 -330 780 -33 99 -57 183 -54 186 3 3 62 -23 132 -58 179
-88 349 -169 408 -192 87 -35 210 -78 222 -78 6 0 112 131 234 290 123 160
226 290 229 290 3 -1 46 -53 96 -118z"/>
</g>
</svg>
