<?xml version="1.0" encoding="UTF-8"?>
<svg width="38px" height="36px" viewBox="0 0 38 36" version="1.1" xmlns="http://www.w3.org/2000/svg" xmlns:xlink="http://www.w3.org/1999/xlink">
    <!-- Generator: Sketch 52.6 (67491) - http://www.bohemiancoding.com/sketch -->
    <title>Logo</title>
    <desc>Created with Sketch.</desc>
    <g id="V2" stroke="none" stroke-width="1" fill="none" fill-rule="evenodd">
        <g id="Home" transform="translate(-17.000000, -17.000000)" fill="#FFFFFF">
            <g id="Top">
                <g id="Logo" transform="translate(17.057900, 16.669188)">
                    <path d="M18.5773399,0.314902838 L12.2941384,8.60564942 C9.3944075,7.59045596 0.0500593082,2.51448867 0.0500593082,2.51448867 C0.0500593082,2.51448867 2.14440341,10.4668374 3.27211415,13.17402 C4.39999408,15.8812025 6.65541555,20.7879709 6.65541555,20.7879709 L3.11120598,26.202336 C3.11120598,26.202336 5.52770481,28.7403197 9.23316094,31.1091044 C12.9386171,33.4778892 18.5773399,35.8466739 18.5773399,35.8466739 C18.5773399,35.8466739 24.2160628,33.4778892 27.9216881,31.1091044 C31.6269751,28.7403197 34.0434739,26.202336 34.0434739,26.202336 L30.4992643,20.7879709 C30.4992643,20.7879709 32.7546858,15.8812025 33.8825657,13.17402 C35.0102765,10.4668374 37.1046206,2.51448867 37.1046206,2.51448867 C37.1046206,2.51448867 27.7602724,7.59045596 24.8605414,8.60564942 L18.5773399,0.314902838 Z M14.3169114,10.1384223 L18.5773399,4.51695776 L22.8377685,10.1384223 L23.9543121,11.6119756 L25.6990912,11.0009984 C27.259782,10.4548243 30.3375102,8.93220331 33.0731181,7.52023841 C32.5161153,9.41171302 31.9423618,11.2316165 31.5396684,12.1980807 C30.4425827,14.8313233 28.2155866,19.6792105 28.1932524,19.7279398 L27.606809,21.0033611 L28.375818,22.1781092 L30.7532319,25.8099638 C29.7603727,26.6788002 28.308646,27.8494874 26.5545609,28.9705994 C23.9730932,30.6211348 20.310952,32.3104167 18.5770015,33.0792565 C16.8442355,32.3114319 13.1864935,30.6240111 10.6002881,28.9705994 C8.84569544,27.8493182 7.39396879,26.6788002 6.40127879,25.8099638 L8.77886187,22.1781092 L9.54787091,21.0033611 L8.96142749,19.7279398 C8.93909323,19.6792105 6.71243558,14.8325077 5.61501145,12.1980807 C5.21265644,11.2321241 4.63873374,9.41188222 4.08156173,7.52040761 C6.81700051,8.93220331 9.89506707,10.4548243 11.4555886,11.0009984 L13.2001986,11.6119756 L14.3169114,10.1384223 Z"></path>
                    <path d="M13.083025,24.1774276 C13.5286562,24.5611758 14.1888562,25.0852707 14.9898575,25.5870496 C16.1537947,26.3161413 17.8072453,27.0623594 18.5773021,27.3965821 C19.3473589,27.0623594 21.0008095,26.3161413 22.1648224,25.5870496 C22.9705902,25.082231 23.6286717,24.5602119 24.0721088,24.178169 L22.6581187,22.061549 L22.9115005,21.5212915 C22.9214875,21.4999393 23.9176132,19.3750897 24.4084128,18.220509 C24.5949121,17.7818232 24.8632744,16.943301 25.1204392,16.0838712 C23.8792541,16.7129483 22.4604976,17.4028201 21.7493791,17.6468145 L20.9952107,17.9055627 L18.5773021,14.7791573 L16.1593935,17.9055627 L15.4052251,17.6468145 C14.6941066,17.4028201 13.2754257,16.7129483 12.0342407,16.0839454 C12.2914055,16.9434492 12.5597677,17.7819715 12.7461914,18.220509 C13.2371423,19.3754604 14.2331167,21.4999393 14.2431037,21.5212915 L14.4965611,22.061549 L13.083025,24.1774276 Z M18.5773021,29.7347322 L18.1524015,29.5598361 C18.0459493,29.5160195 15.5245392,28.4737607 13.8080647,27.3985097 C12.0592838,26.3030186 10.9147909,25.1333134 10.8668988,25.0840845 L10.267226,24.4668698 L11.9970165,21.8775338 C11.6625283,21.1571164 11.0751879,19.8810204 10.7208014,19.0473913 C10.1936098,17.8071791 9.27079765,14.3821381 9.2318333,14.236898 L8.58517628,11.8308358 L10.816283,13.0184829 C11.7518058,13.5164806 14.0579662,14.7162866 15.4060573,15.3199337 L18.5773021,11.2194782 L21.7485469,15.3200078 C23.0967893,14.7162125 25.4027984,13.5164806 26.3383212,13.0184829 L28.5695036,11.8307617 L27.9228466,14.236898 C27.8838066,14.3821381 26.96107,17.8071791 26.4338028,19.0473913 C26.0794163,19.8810204 25.4921516,21.1571164 25.1576634,21.8775338 L26.8873782,24.4668698 L26.2877054,25.0840845 C26.2398133,25.1333134 25.0953961,26.3030186 23.3466152,27.3985097 C21.6301406,28.4737607 19.1087305,29.5160195 19.0022027,29.5598361 L18.5773021,29.7347322 Z" id="Fill-1"></path>
                </g>
            </g>
        </g>
    </g>
</svg>