<?xml version="1.0" encoding="UTF-8"?>
<svg width="260px" height="251px" viewBox="0 0 260 251" version="1.1" xmlns="http://www.w3.org/2000/svg" xmlns:xlink="http://www.w3.org/1999/xlink">
    <!-- Generator: Sketch 53 (72520) - https://sketchapp.com -->
    <title>tierlist-logo-v2_7ce0763a</title>
    <desc>Created with Sketch.</desc>
    <g id="Symbols" stroke="none" stroke-width="1" fill="none" fill-rule="evenodd">
        <g id="Favicon" transform="translate(0.000000, -5.000000)" fill="#1B1D25" fill-rule="nonzero">
            <g id="tierlist-logo-v2_7ce0763a" transform="translate(0.000000, 5.000000)">
                <path d="M130.002734,0.5 L85.9158484,58.8294959 C65.5672141,51.6972897 0,15.9814376 0,15.9814376 C0,15.9814376 14.6956284,71.9317041 22.6120235,90.9765037 C30.5229514,110.021303 46.3502744,144.547541 46.3502744,144.547541 L21.4803289,182.642622 C21.4803289,182.642622 38.4338793,200.497807 64.4355195,217.16886 C90.4371596,233.83443 130.002734,250.5 130.002734,250.5 C130.002734,250.5 169.568308,233.83443 195.569948,217.16886 C221.566121,200.503289 238.525138,182.642622 238.525138,182.642622 L213.649726,144.547541 C213.649726,144.547541 229.482516,110.021303 237.393444,90.9765037 C245.304372,71.9317041 260,15.9814376 260,15.9814376 C260,15.9814376 194.438253,51.6918076 174.089619,58.834978 L130.002734,0.505482095 L130.002734,0.5 Z M100.108501,69.6182598 L130.002734,30.0649409 L159.896966,69.6182598 L167.731354,79.9849023 L179.977711,75.6869395 C190.922893,71.8494726 212.518031,61.131976 231.713102,51.198419 C227.804109,64.5034647 223.780306,77.3096397 220.953803,84.1074381 C213.256093,102.636921 197.631053,136.746519 197.472507,137.091891 L193.36123,146.060599 L198.757281,154.327599 L215.432008,179.879646 C206.173682,188.011805 196.327837,195.445729 185.975146,202.120507 C167.862565,213.731586 142.167084,225.616769 129.997266,231.027597 C117.838383,225.627733 92.1757049,213.753514 74.0303215,202.120507 C63.6734205,195.44682 53.8238612,188.012851 44.562525,179.879646 L61.2481864,154.333081 L66.6442374,146.060599 L62.5274933,137.091891 C62.3744139,136.746519 46.7493744,102.647885 39.0516643,84.1074381 C36.2251614,77.3096397 32.2013584,64.5089468 28.2868978,51.198419 C47.481969,61.131976 69.0825746,71.8439905 80.0332233,75.6869395 L92.2741132,79.9849023 L100.108501,69.6182598 Z" id="Shape"></path>
                <path d="M91.5053218,168.479212 C95.7095177,172.105516 100.175686,175.415062 104.867246,178.380744 C113.02195,183.495624 124.604468,188.736324 129.997271,191.083151 C135.395532,188.730853 146.972592,183.495624 155.132754,178.375274 C159.824381,175.416259 164.288954,172.110201 168.48922,168.484683 L158.587859,153.626915 L160.361807,149.830416 C160.432765,149.682713 167.408476,134.76477 170.847207,126.657549 C172.157199,123.577681 174.034855,117.685996 175.836095,111.657549 C167.141019,116.07221 157.20145,120.913567 152.21802,122.631291 L146.934383,124.447484 L129.997271,102.49453 L113.060158,124.447484 L107.776522,122.631291 C102.793091,120.913567 92.8589809,116.07221 84.163905,111.657549 C85.9651448,117.691466 87.8428009,123.577681 89.1473352,126.657549 C92.5860657,134.76477 99.5672346,149.682713 99.6381925,149.830416 L101.412141,153.626915 L91.5107801,168.479212 L91.5053218,168.479212 Z M129.997271,207.5 L127.022496,206.269147 C126.274709,205.962801 108.611642,198.643326 96.5870014,191.094092 C84.3385707,183.402626 76.3203244,175.191466 75.9819096,174.846827 L71.7790167,170.514223 L83.8964482,152.330416 C80.8300803,145.747597 77.851402,139.124106 74.9612071,132.461707 C71.2659363,123.752735 64.8033062,99.7100656 64.530391,98.6870897 L60,81.7943107 L75.62712,90.131291 C82.1825412,93.6323851 98.3336582,102.056893 107.78198,106.291028 L129.997271,77.5 L152.212562,106.291028 C161.655425,102.051422 177.812,93.6323851 184.367422,90.131291 L200,81.7943107 L195.469609,98.6870897 C195.196694,99.7100656 188.728605,123.752735 185.038793,132.461707 C182.149426,139.125305 179.168912,145.748833 176.098093,152.330416 L188.215525,170.514223 L184.012632,174.846827 C183.679676,175.191466 175.661429,183.402626 163.40754,191.094092 C151.3829,198.643326 133.719833,205.962801 132.977504,206.269147 L129.997271,207.5 L129.997271,207.5 Z" id="Shape"></path>
            </g>
        </g>
    </g>
</svg>